<svg viewBox="0 0 48 48" fill="none" xmlns="http://www.w3.org/2000/svg">
  <g clip-path="url(#a)">
    <path d="M39.96 4.917a.703.703 0 0 0-1.248.649 7.637 7.637 0 0 1 .542 5.714c-.226.767-2.215 7.5-2.301 7.835a.15.15 0 0 1-.145.114H20.215a.703.703 0 1 0 0 1.406h14.46l-.391 2.148a.15.15 0 0 1-.147.123h-20.26a.149.149 0 0 1-.146-.123l-.391-2.148h3.813a.703.703 0 0 0 0-1.406h-5.947a.15.15 0 0 1-.144-.114l-.006-.022L8.76 11.28a7.626 7.626 0 0 1 1.214-6.786 7.626 7.626 0 0 1 6.163-3.088c.729 0 1.45.102 2.143.303a20.56 20.56 0 0 0 11.454 0 7.705 7.705 0 0 1 2.144-.303c1.885 0 3.693.684 5.093 1.927a.703.703 0 1 0 .934-1.052A9.07 9.07 0 0 0 31.878 0c-.861 0-1.714.12-2.535.358a19.153 19.153 0 0 1-10.672 0A9.118 9.118 0 0 0 16.137 0a9.02 9.02 0 0 0-7.29 3.653 9.018 9.018 0 0 0-1.435 8.024l2.292 7.803c.182.68.798 1.155 1.502 1.155h.705l.437 2.4c.134.74.778 1.277 1.53 1.277h3.064l.496 4.277-.495.133a1.973 1.973 0 0 0-1.207.926c-.265.46-.335.995-.198 1.507a1.99 1.99 0 0 0 2.364 1.42l.252 2.176-.67.18a1.989 1.989 0 0 0-1.405 2.433 1.99 1.99 0 0 0 2.434 1.405l.105-.028.252 2.173-.573.154c-.513.137-.941.466-1.207.926-.265.46-.335.994-.198 1.507.137.512.466.94.925 1.206a1.977 1.977 0 0 0 1.508.199l.009-.003.192 1.648a1.637 1.637 0 0 0 1.626 1.45h5.71c.832 0 1.531-.624 1.627-1.45l.492-4.233.737-.197a1.989 1.989 0 0 0 1.405-2.433 1.99 1.99 0 0 0-1.667-1.456l.287-2.472.788-.211a1.989 1.989 0 0 0 1.404-2.433 1.989 1.989 0 0 0-1.715-1.462l.285-2.453.567-.151a1.989 1.989 0 0 0 1.405-2.434 1.988 1.988 0 0 0-1.506-1.427l.102-.877h3.064c.752 0 1.396-.537 1.53-1.277l.437-2.4h.704c.709 0 1.328-.48 1.506-1.167.062-.238 1.403-4.789 2.289-7.79a9.04 9.04 0 0 0-.643-6.76ZM27.092 46.39a.231.231 0 0 1-.23.205h-5.71a.231.231 0 0 1-.23-.205l-.215-1.854 6.813-1.825-.428 3.679Zm2.672-6.337a.58.58 0 0 1-.41.71L18.96 43.547a.576.576 0 0 1-.71-.41.577.577 0 0 1 .41-.71l10.393-2.786a.58.58 0 0 1 .71.41Zm-1.751-1.588-7.77 2.082-.252-2.173 8.29-2.222-.268 2.313Zm2.564-4.984a.581.581 0 0 1-.41.71l-12.018 3.22a.58.58 0 0 1-.3-1.12l12.017-3.22a.581.581 0 0 1 .71.41Zm.541-6.5a.581.581 0 0 1-.41.71l-4.297 1.152a.703.703 0 1 0 .364 1.359l2.269-.608-.27 2.313-9.247 2.478-.252-2.174 4.54-1.216a.703.703 0 0 0-.364-1.359l-5.844 1.566a.581.581 0 0 1-.3-1.12l13.1-3.511a.58.58 0 0 1 .711.41Zm-1.581-1.633-10.726 2.874-.454-3.91h11.3l-.12 1.036Z"/>
    <path d="M29.343 4.106a19.153 19.153 0 0 1-10.672 0 .703.703 0 0 0-.39 1.35 20.573 20.573 0 0 0 11.454 0 .703.703 0 1 0-.392-1.35Z"/>
  </g>
  <defs>
    <clipPath id="a">
      <path d="M0 0h48v48H0z"/>
    </clipPath>
  </defs>
</svg>
