<svg viewBox="0 0 20 20" fill="none" xmlns="http://www.w3.org/2000/svg">
  <path d="M15.834 7.02V5.833a5.833 5.833 0 0 0-11.667 0V7.02a4.167 4.167 0 0 0-2.5 3.813v5A4.172 4.172 0 0 0 5.834 20h8.333a4.171 4.171 0 0 0 4.167-4.167v-5a4.167 4.167 0 0 0-2.5-3.813Zm-10-1.187a4.167 4.167 0 0 1 8.333 0v.834H5.834v-.834Zm10.833 10a2.5 2.5 0 0 1-2.5 2.5H5.834a2.5 2.5 0 0 1-2.5-2.5v-5a2.5 2.5 0 0 1 2.5-2.5h8.333a2.5 2.5 0 0 1 2.5 2.5v5Z"/>
  <path d="M10 11.666a.833.833 0 0 0-.833.833v1.667a.833.833 0 0 0 1.667 0v-1.667a.833.833 0 0 0-.834-.833Z"/>
</svg>
