<svg xmlns="http://www.w3.org/2000/svg" style="shape-rendering:geometricPrecision;text-rendering:geometricPrecision;image-rendering:optimizeQuality;fill-rule:evenodd;clip-rule:evenodd" viewBox="0 0 255 255">
  <path style="opacity:.965" fill="#ef820f" d="M121.5-.5h10c53.533 4.353 91.367 31.02 113.5 80 5.564 14.992 8.731 30.325 9.5 46v4c-2.947 48.073-24.947 84.573-66 109.5-15.246 7.917-31.246 13.083-48 15.5h-27c-55.132-8.285-91.632-38.951-109.5-92-1.73-7.09-3.23-14.09-4.5-21v-28C8.674 55.484 41.674 18.651 98.5 3a244.968 244.968 0 0 1 23-3.5Z"/>
  <path style="opacity:1" fill="#fbf9f9" d="M113.5 14.5c50.266-2.29 88.099 18.043 113.5 61 20.955 46.312 15.288 88.978-17 128-38.491 37.586-82.658 46.086-132.5 25.5-46.523-26.207-67.356-66.04-62.5-119.5 12.12-53.289 44.953-84.955 98.5-95Z"/>
  <path style="opacity:1" fill="#020202" d="M223.5 87.5a4489.621 4489.621 0 0 1-134 1c-.167-16.67 0-33.337.5-50 1.282-5.614 4.449-9.78 9.5-12.5 17.022-4.664 34.022-4.664 51 0a31.989 31.989 0 0 1 5.5 7.5 14.584 14.584 0 0 1 4-6c13.844 5.335 26.344 12.835 37.5 22.5l-29 1c-2.686 2.546-3.686 5.713-3 9.5 14.004-.167 28.004 0 42 .5a97.675 97.675 0 0 1 16 26.5Z"/>
  <path style="opacity:1" fill="#010101" d="M46.5 59.5c.827 5.15 1.327 10.484 1.5 16 1.188-1.063 1.688-2.397 1.5-4a217.24 217.24 0 0 0 4.5-20c9.382-8.612 19.882-15.612 31.5-21l1 1.5a2010.27 2010.27 0 0 0-13 52.5 3163.611 3163.611 0 0 0 19 76h-29a3890.55 3890.55 0 0 0-14.5-66c-.5 21.997-.667 43.997-.5 66-7.255.313-14.421-.02-21.5-1-10.812-36.812-4.312-70.145 19.5-100Z"/>
  <path style="opacity:1" fill="#f9f9f9" d="M118.5 48.5c6.784-.42 13.45.08 20 1.5 2.731 2.897 3.731 6.397 3 10.5h-26c-.165-3.35.002-6.683.5-10 .995-.566 1.828-1.233 2.5-2Z"/>
  <path style="opacity:1" fill="#686767" d="M49.5 71.5c.188 1.603-.312 2.937-1.5 4-.173-5.516-.673-10.85-1.5-16 .283-.79.783-1.456 1.5-2 .175 4.851.675 9.518 1.5 14Z"/>
  <path style="opacity:1" fill="#636262" d="M223.5 87.5c.543.06.876.393 1 1a2282.782 2282.782 0 0 1-135 0c44.836.332 89.503-.001 134-1Z"/>
  <path style="opacity:1" fill="#ef8311" d="M119.5 96.5c27.355-1.806 40.855 10.861 40.5 38-6.025 19.435-19.192 27.935-39.5 25.5-19.605-7.033-27.438-20.866-23.5-41.5 4.109-10.943 11.609-18.277 22.5-22Z"/>
  <path style="opacity:1" fill="#010101" d="M198.5 123.5c.543-.06.876-.393 1-1a211.151 211.151 0 0 0-29-1v-25h57a123.993 123.993 0 0 1 .5 26 4018.947 4018.947 0 0 1-30.5 82c-8.469 8.074-18.136 14.407-29 19a38.064 38.064 0 0 1-.5-15 12788.998 12788.998 0 0 1 30.5-85Z"/>
  <path style="opacity:1" fill="#989897" d="M170.5 121.5c9.69-.332 19.356.002 29 1-.124.607-.457.94-1 1l-28-2Z"/>
  <path style="opacity:1" fill="#fffbf7" d="M125.5 122.5c7.06-.775 9.56 2.225 7.5 9-5.106 4.541-8.939 3.541-11.5-3 .967-2.29 2.3-4.29 4-6Z"/>
  <path style="opacity:1" fill="#9c9c9b" d="M159.5 167.5c-43.17-.332-86.17.001-129 1-.543-.06-.876-.393-1-1a2116.695 2116.695 0 0 1 130 0Z"/>
  <path style="opacity:1" fill="#010101" d="M159.5 167.5v27h-49v13a600.937 600.937 0 0 0 49 1 96.254 96.254 0 0 1-1 19c-35.508 9.936-67.84 3.936-97-18l22-2v-13c-12.671.167-25.338 0-38-.5a108.98 108.98 0 0 1-15-25.5c42.83-.999 85.83-1.332 129-1Z"/>
  <path style="opacity:1" fill="#646363" d="m83.5 207.5-22 2c-.79-.283-1.456-.783-2-1.5 7.993-.5 15.993-.666 24-.5Z"/>
  <path style="opacity:1" fill="#868685" d="M110.5 207.5h50c.626 7.084-.041 13.75-2 20a96.254 96.254 0 0 0 1-19 600.937 600.937 0 0 1-49-1Z"/>
</svg>
