<svg viewBox="0 0 21 21" fill="none" xmlns="http://www.w3.org/2000/svg">
  <path d="M3.071 17.223c-3.905-3.907-3.905-10.242 0-14.149 3.905-3.907 10.237-3.907 14.142 0 3.905 3.907 3.906 10.242 0 14.149-3.905 3.906-10.237 3.906-14.142 0Zm1.414-1.415a7.998 7.998 0 0 0 13.657-5.66 8.005 8.005 0 0 0-8-8.003 7.998 7.998 0 0 0-8 8.003c0 2.123.843 4.159 2.343 5.66Zm.071-6.66h4.586V4.56c-.012-.667.321-1 1-1s1.012.333 1 1v4.588h4.586c.666 0 1 .333 1 1 0 .668-.334 1-1 1h-4.586v4.589c.016.666-.318 1-1 1-.682 0-1.015-.334-1-1v-4.588H4.556c-.666.001-1-.333-1-1 0-.668.334-1.002 1-1Z" fill="#011632"/>
</svg>
