<svg viewBox="0 0 48 48" fill="none" xmlns="http://www.w3.org/2000/svg">
  <g clip-path="url(#a)" stroke="#fff" stroke-width="1.5" stroke-miterlimit="10" stroke-linecap="round" stroke-linejoin="round">
    <path d="M6.07 19.183c2.198 4.198 5.556 6.804 8.775 8.42 5.145 2.582 10.683 2.909 15.915.981l.095-.035M33.81 27.184c2.96-1.636 5.958-4.145 7.977-7.986"/>
    <path d="M.693 18.52a397.84 397.84 0 0 0 2.424 2.881c4.07 4.8 8.03 9.52 13.335 12.382 5.095 2.75 9.989 2.756 15.097 0 5.305-2.861 9.264-7.582 13.334-12.382.811-.956 1.62-1.915 2.424-2.88"/>
    <path d="M19.418 20.138v3.119c0 .494.4.895.895.895h2.772c.495 0 .896-.4.896-.895V20.23M23.988 20.23v3.027c0 .494.4.895.895.895h2.773c.494 0 .895-.4.895-.895v-3.119M28.583 20.138v3.242c0 .427.346.772.772.772h2.39a.772.772 0 0 0 .771-.772v-3.423"/>
    <path d="M32.516 19.956v2.11c0 .404.327.73.73.73h2.261a.73.73 0 0 0 .73-.73v-2.36M19.418 20.138v3.242a.772.772 0 0 1-.772.772h-2.39a.772.772 0 0 1-.772-.772v-3.423M15.484 19.956v2.11a.73.73 0 0 1-.73.73h-2.26a.73.73 0 0 1-.731-.73v-2.36"/>
    <path d="M15.443 11.137C18.36 10.07 21.34 9.879 24 12.194c5.195-4.52 11.61.52 16.393 2.954 2.285 1.163 4.61 2.237 6.904 3.377 0 0-11.057 1.649-23.287 1.705v0h-.02v0C11.76 20.174.703 18.525.703 18.525c2.295-1.14 4.62-2.214 6.904-3.377 1.46-.744 3.074-1.73 4.758-2.613l.142-.074M39.36 34.048c-.304.645-1.184 2.22-2.737 2.756a.135.135 0 0 0 0 .254c1.553.535 2.433 2.11 2.737 2.755a.135.135 0 0 0 .245 0c.304-.645 1.185-2.22 2.737-2.755a.135.135 0 0 0 0-.254c-1.552-.536-2.433-2.111-2.737-2.756a.135.135 0 0 0-.245 0ZM9.462 1.77c-.418.887-1.632 3.057-3.77 3.794a.185.185 0 0 0 0 .35c2.138.738 3.352 2.908 3.77 3.796.067.142.27.142.337 0 .419-.888 1.632-3.058 3.77-3.795a.185.185 0 0 0 0-.35c-2.138-.738-3.351-2.908-3.77-3.796a.186.186 0 0 0-.337 0ZM32.441 38.293c-.419.888-1.632 3.057-3.77 3.795a.185.185 0 0 0 0 .35c2.138.738 3.351 2.907 3.77 3.795.067.142.27.142.336 0 .42-.888 1.632-3.057 3.77-3.795a.185.185 0 0 0 0-.35c-2.138-.738-3.35-2.907-3.77-3.795a.186.186 0 0 0-.336 0Z"/>
  </g>
  <defs>
    <clipPath id="a">
      <path fill="#fff" d="M0 0h48v48H0z"/>
    </clipPath>
  </defs>
</svg>
