<svg viewBox="0 0 27 27" fill="none" xmlns="http://www.w3.org/2000/svg">
  <g clip-path="url(#a)">
    <path d="M5.4 17.615c2.613 3.125 5.76 5.585 9.351 7.326 1.367.648 3.196 1.416 5.233 1.548.126.005.247.011.373.011 1.368 0 2.466-.472 3.36-1.444a.117.117 0 0 0 .023-.028c.318-.384.68-.73 1.06-1.098.258-.247.521-.505.774-.769 1.17-1.219 1.17-2.767-.011-3.948l-3.3-3.3c-.56-.582-1.23-.89-1.933-.89-.703 0-1.378.308-1.955.885l-1.966 1.966a10.39 10.39 0 0 0-.543-.286 6.818 6.818 0 0 1-.604-.33c-1.79-1.136-3.416-2.619-4.97-4.524-.785-.994-1.312-1.829-1.68-2.68.516-.467 1-.955 1.466-1.433.165-.17.335-.34.505-.51.593-.594.912-1.28.912-1.977 0-.698-.313-1.384-.912-1.977L8.947 2.52c-.192-.192-.374-.378-.56-.57A30.111 30.111 0 0 0 7.272.845C6.707.29 6.042 0 5.34 0c-.697 0-1.367.291-1.955.851L1.331 2.905A4.22 4.22 0 0 0 .073 5.606C-.03 6.92.211 8.314.837 10c.96 2.608 2.41 5.03 4.563 7.616ZM1.413 5.722c.066-.73.346-1.34.873-1.867L4.33 1.812c.318-.307.67-.467 1.01-.467.335 0 .676.16.989.478.368.34.713.697 1.087 1.076.187.192.379.385.57.582l1.637 1.637c.34.34.516.686.516 1.027 0 .34-.175.686-.516 1.026-.17.17-.34.346-.51.517-.511.516-.989 1.004-1.516 1.471l-.027.028c-.456.455-.385.89-.275 1.219l.017.043c.422 1.016 1.01 1.983 1.927 3.136 1.647 2.032 3.382 3.608 5.293 4.821.236.154.489.275.725.396.22.11.423.214.604.329.022.01.039.022.06.033.182.093.357.137.533.137.44 0 .725-.28.818-.373l2.054-2.054c.319-.318.665-.489 1.005-.489.417 0 .758.258.972.49l3.311 3.305c.659.659.653 1.372-.017 2.07-.23.247-.472.483-.73.73-.384.374-.785.758-1.148 1.192-.63.68-1.383 1-2.355 1-.093 0-.192-.006-.286-.012-1.8-.115-3.476-.818-4.733-1.416-3.415-1.653-6.414-3.998-8.901-6.974-2.048-2.466-3.426-4.761-4.338-7.221-.566-1.51-.78-2.724-.692-3.827Z" fill="#fff"/>
  </g>
  <defs>
    <clipPath id="a">
      <path fill="#fff" d="M0 0h26.5v26.5H0z"/>
    </clipPath>
  </defs>
</svg>
