<svg viewBox="0 0 48 48" fill="none" xmlns="http://www.w3.org/2000/svg">
  <path d="M41.297 4.253a13.438 13.438 0 0 0-3.91-2.453c-1.472-.595-3.045-.911-4.63-.988-.281-.013-.564-.019-.846-.019-1.478.004-2.996.388-4.392 1.111a7.643 7.643 0 0 1-7.03 0C19.092 1.181 17.573.797 16.095.793c-1.59 0-3.18.217-4.693.72A13.235 13.235 0 0 0 6.71 4.252c-3.06 2.743-4.694 6.842-4.482 11.25.205 3.99 1.522 9.322 6.505 12.48-.029 1.11-.051 2.252.027 3.406.053.702.114 1.497.238 2.288.675 4.366 2.007 9.248 6.767 12.346 1.142.744 2.99 1.82 4.238.65.871-.819 1.09-2.294 1.151-3.43.002-.054.291-4.944 2.883-9.777 1.047 1.727 2.685 5.162 3.265 10.426.163 1.477.8 3.32 2.59 3.32.933 0 1.777-.516 2.113-.72 2.819-1.72 4.785-4.059 6.012-7.148 1.465-3.674 1.609-7.247 1.32-11.395 4.952-3.176 6.245-8.483 6.43-12.454.224-4.406-1.406-8.504-4.47-11.241ZM29.743 23.554a22.504 22.504 0 0 0-5.1-2.647c-.447-.164-.846-.278-1.285 0a22.466 22.466 0 0 0-5.09 2.64c-.222-2.93-1.08-5.886-1.876-8.03l5.322 1.38a9.8 9.8 0 0 0 5.04-.03l4.837-1.359c-.778 2.168-1.629 5.122-1.848 8.046Zm-4.95 7.082a1.122 1.122 0 0 0-1.78.143c-3.716 5.754-4.09 12.077-4.103 12.342l-.002.024c-2.941-7.063-1.112-15.11-.724-16.624.428-.515 2.736-2.301 5.817-3.454 3.127 1.17 5.46 2.995 5.836 3.478.446 1.47 2.69 9.678-.334 16.818-1.007-8.52-4.557-12.559-4.71-12.727ZM16.83 44.021c-3.882-2.626-5.018-6.87-5.609-10.694-.11-.703-.168-1.452-.217-2.103-.077-1.121-.047-2.238-.017-3.422.017-.67-.058-1.124-.675-1.483-4.491-2.609-5.655-7.382-5.838-10.932-.179-3.724 1.182-7.174 3.737-9.463a11.207 11.207 0 0 1 5.461-2.674c1.974-.362 3.97-.289 5.78.649a9.897 9.897 0 0 0 9.101 0c1.079-.56 2.241-.857 3.362-.859 1.576 0 3.15.253 4.616.843a11.119 11.119 0 0 1 3.265 2.043c2.555 2.283 3.914 5.728 3.726 9.454-.166 3.573-1.326 8.376-5.898 10.99-.337.193-.61.662-.572 1.073.328 4.132.262 7.594-1.123 11.066-.913 2.3-2.309 4.108-4.25 5.5 2.204-5.372 2.054-11.624.581-17.173-.909-3.423.282-7.316 1.447-10.569.28-.78.104-1.643-.46-2.254a2.232 2.232 0 0 0-2.227-.64l-4.859 1.323a7.577 7.577 0 0 1-3.884.023l-5.322-1.381a2.227 2.227 0 0 0-2.662 2.9c1.112 3.096 2.312 6.562 1.658 9.89-.439 2.23-.842 4.417-.934 6.699a30.047 30.047 0 0 0 .259 5.446 24.355 24.355 0 0 0 1.012 4.31s.333 1.18.542 1.438Z" stroke="#ef820f" stroke-width=".5"/>
</svg>
