<svg viewBox="0 0 275 5" fill="none" xmlns="http://www.w3.org/2000/svg">
  <path fill-rule="evenodd" clip-rule="evenodd" d="M6.322 4.07c5.828-.305 21.146-.32 62.727-.35 64.931-.046 116.463-.382 130.786-.87 1.137-.046-89.88-.382-99.227-.138-14.57.397-84.158.061-98.16-.397-3.98-.122-2.488-.55.106-.64 4.052-.153 14.927-.138 44.745-.108 20.968.016 187.791-.335 206.023-.961 10.235-.351 16.455-.672 19.298-.595 2.381.06 2.417.244.355.748-1.386.335.178.534 1.173.625 1.528.153.889.672-1.03 1.084-2.595.565-7.073.55-4.94-.015.462-.122.568-.428-1.067-.367-4.762.184-38.418 1.435-47.552 1.649-97.52 2.32-192.696.626-212.846 1.19-7.144.214-3.874-.671-.391-.854Z" fill="#ef820f"/>
</svg>
